# xmcd
#
# Track frame offsets:
#	150
#	13922
#	31073
#	48234
#	65596
#	87445
#	106993
#	120231
#	138235
#	157845
#	173352
#	192391
#
# Disc length: 2778 seconds
#
# Revision: 1
# Processed by: cddbd v1.5.2PL0 Copyright (c) Steve Scherf et al.
# Submitted via: audiograbber 1.83.01
#
DISCID=8d0ad80c
DTITLE=Joshua Creek - American Day
DYEAR=1900
DGENRE=
TTITLE0=Flying to Freedom
TTITLE1=American Day
TTITLE2=Where Heroes Go
TTITLE3=The First Mechanic's Church of Abilene
TTITLE4=Bring Him Home
TTITLE5=What love Realily Means
TTITLE6=Captain Jones
TTITLE7=Max Austin
TTITLE8=That Far
TTITLE9=Grandapa Was a Rock Star
TTITLE10=Don't Wait for Perfect
TTITLE11=Bad Math
EXTD=
EXTT0=
EXTT1=
EXTT2=
EXTT3=
EXTT4=
EXTT5=
EXTT6=
EXTT7=
EXTT8=
EXTT9=
EXTT10=
EXTT11=
PLAYORDER=
